<svg width="512" height="512" viewBox="0 0 512 512" fill="none" xmlns="http://www.w3.org/2000/svg">
<rect width="512" height="512" fill="#23236E"/>
<path d="M232.47 306.222H291.277L320.84 344.254L349.924 378.132L404.736 446.847H340.176L302.463 400.504L283.127 373.018L232.47 306.222ZM409.689 256.364C409.689 292.053 402.924 322.415 389.395 347.45C375.971 372.486 357.647 391.609 334.423 404.819C311.305 417.923 285.311 424.474 256.44 424.474C227.356 424.474 201.255 417.869 178.138 404.659C155.02 391.449 136.749 372.326 123.326 347.29C109.902 322.255 103.191 291.946 103.191 256.364C103.191 220.675 109.902 190.312 123.326 165.277C136.749 140.241 155.02 121.172 178.138 108.068C201.255 94.8579 227.356 88.2528 256.44 88.2528C285.311 88.2528 311.305 94.8579 334.423 108.068C357.647 121.172 375.971 140.241 389.395 165.277C402.924 190.312 409.689 220.675 409.689 256.364ZM339.537 256.364C339.537 233.246 336.074 213.75 329.15 197.876C322.331 182.003 312.69 169.964 300.226 161.761C287.761 153.558 273.166 149.457 256.44 149.457C239.714 149.457 225.119 153.558 212.655 161.761C200.19 169.964 190.495 182.003 183.571 197.876C176.753 213.75 173.343 233.246 173.343 256.364C173.343 279.482 176.753 298.977 183.571 314.851C190.495 330.724 200.19 342.763 212.655 350.966C225.119 359.169 239.714 363.271 256.44 363.271C273.166 363.271 287.761 359.169 300.226 350.966C312.69 342.763 322.331 330.724 329.15 314.851C336.074 298.977 339.537 279.482 339.537 256.364Z" fill="white"/>
<circle cx="381" cy="96" r="36" fill="#ED1B43"/>
</svg>
